<svg xmlns="http://www.w3.org/2000/svg" width="80" height="80">
  <path d="M16 0a8 8 0 0 0-8 8v6h6a6 6 0 0 1 6 6v38h40V20a6 6 0 0 1 6-6h6V8a8 8 0 0 0-8-8H16Zm-4 18a4 4 0 0 1 4 4v36H4a5.978 5.978 0 0 0-4 1.528V22a4 4 0 0 1 4-4h8Zm68 41.528V22a4 4 0 0 0-4-4h-8a4 4 0 0 0-4 4v36h12c1.537 0 2.939.578 4 1.528ZM4 62a4 4 0 0 0-4 4v10a4 4 0 0 0 4 4h72a4 4 0 0 0 4-4V66a4 4 0 0 0-4-4H4Z"/>
  <path d="M8 14H6v2h2v-2Zm12 44h-2v2h2v-2Zm40 0v2h2v-2h-2Zm12-44v2h2v-2h-2ZM16 58v2h2v-2h-2ZM0 59.528h-2v4.474l3.334-2.984L0 59.528Zm80 0-1.334 1.49L82 64.002v-4.474h-2ZM64 58h-2v2h2v-2ZM10 8a6 6 0 0 1 6-6v-4C10.477-2 6 2.477 6 8h4Zm0 6V8H6v6h4Zm4-2H8v4h6v-4Zm8 8a8 8 0 0 0-8-8v4a4 4 0 0 1 4 4h4Zm0 38V20h-4v38h4Zm38-2H20v4h40v-4Zm-2-36v38h4V20h-4Zm8-8a8 8 0 0 0-8 8h4a4 4 0 0 1 4-4v-4Zm6 0h-6v4h6v-4Zm-2-4v6h4V8h-4Zm-6-6a6 6 0 0 1 6 6h4c0-5.523-4.477-10-10-10v4ZM16 2h48v-4H16v4Zm2 20a6 6 0 0 0-6-6v4a2 2 0 0 1 2 2h4Zm0 36V22h-4v36h4ZM4 60h12v-4H4v4Zm-2.666 1.018A3.978 3.978 0 0 1 4 60v-4c-2.048 0-3.92.772-5.334 2.038l2.668 2.98ZM-2 22v37.528h4V22h-4Zm6-6a6 6 0 0 0-6 6h4a2 2 0 0 1 2-2v-4Zm8 0H4v4h8v-4Zm66 6v37.528h4V22h-4Zm-2-2a2 2 0 0 1 2 2h4a6 6 0 0 0-6-6v4Zm-8 0h8v-4h-8v4Zm-2 2a2 2 0 0 1 2-2v-4a6 6 0 0 0-6 6h4Zm0 36V22h-4v36h4Zm10-2H64v4h12v-4Zm5.334 2.038A7.977 7.977 0 0 0 76 56v4c1.026 0 1.957.383 2.666 1.018l2.668-2.98ZM2 66a2 2 0 0 1 2-2v-4a6 6 0 0 0-6 6h4Zm0 10V66h-4v10h4Zm2 2a2 2 0 0 1-2-2h-4a6 6 0 0 0 6 6v-4Zm72 0H4v4h72v-4Zm2-2a2 2 0 0 1-2 2v4a6 6 0 0 0 6-6h-4Zm0-10v10h4V66h-4Zm-2-2a2 2 0 0 1 2 2h4a6 6 0 0 0-6-6v4ZM4 64h72v-4H4v4Z" stroke="transparent" fill="none"/>
</svg>
